<svg width="389" height="202" viewBox="0 0 389 202" fill="none" xmlns="http://www.w3.org/2000/svg">
<path d="M388.6 148.947V150.282C388.57 150.537 388.542 150.792 388.513 151.047C388.363 152.214 388.01 153.331 387.475 154.327C386.695 155.846 385.654 157.099 384.521 158.26C383.052 159.723 381.484 161.041 379.832 162.2C379.797 162.109 379.761 162.028 379.729 161.943C379.002 160.031 377.984 158.293 376.727 156.817C376.07 156.039 375.395 155.281 374.741 154.499C374.211 153.892 373.777 153.178 373.458 152.39C373.078 151.381 372.931 150.27 373.03 149.171C373.072 148.38 373.287 147.616 373.654 146.953C374.189 146.013 374.957 145.49 375.878 145.273C376.983 144.991 378.136 145.188 379.129 145.828C379.708 146.187 380.199 146.717 380.553 147.367C380.601 147.262 380.647 147.164 380.69 147.066C381.001 146.339 381.413 145.678 381.908 145.113C382.268 144.702 382.7 144.392 383.173 144.205C383.646 144.017 384.149 143.958 384.644 144.03C385.654 144.13 386.599 144.66 387.304 145.523C387.971 146.342 388.404 147.39 388.541 148.517C388.559 148.665 388.583 148.807 388.6 148.947Z" fill="#007AFF"/>
<g filter="url(#filter0_d)">
<path d="M39.7647 63.3176C54.9688 63.3176 67.2941 51.677 67.2941 37.3176C67.2941 22.9582 54.9688 11.3176 39.7647 11.3176C24.5606 11.3176 12.2353 22.9582 12.2353 37.3176C12.2353 51.677 24.5606 63.3176 39.7647 63.3176Z" fill="black"/>
<path d="M148.053 98.765C144.643 94.008 137.618 92.6547 132.364 95.7428C118.45 103.916 107.995 107.369 101.28 106.003C96.0409 104.937 91.8221 100.82 85.3733 94.1885C78.1003 86.7105 69.0481 77.4038 54.3584 72.37C53.2922 72.0048 52.2039 71.7982 51.1226 71.7303C39.1874 68.5072 24.5725 67.646 15.2179 76.114C12.6675 78.4224 6.11768 82.9572 6.11768 100.899V155.082H71.4067L69.1506 108.583C76.4133 116.037 84.0672 123.549 96.307 126.039C98.8938 126.565 101.56 126.829 104.325 126.829C115.731 126.829 128.801 122.314 144.713 112.968C149.968 109.88 151.463 103.522 148.053 98.765Z" fill="black"/>
</g>
<path d="M202.656 148.648C207.36 148.648 211.68 147.832 215.616 146.2C219.648 144.472 223.056 141.976 225.84 138.712L231.6 145.336C228.24 149.368 224.064 152.44 219.072 154.552C214.08 156.664 208.56 157.72 202.512 157.72C194.736 157.72 187.824 156.088 181.776 152.824C175.728 149.464 171.024 144.856 167.664 139C164.304 133.144 162.624 126.52 162.624 119.128C162.624 111.736 164.208 105.112 167.376 99.256C170.64 93.4 175.104 88.84 180.768 85.576C186.432 82.312 192.864 80.68 200.064 80.68C206.784 80.68 212.832 82.216 218.208 85.288C223.68 88.36 228 92.632 231.168 98.104C234.432 103.576 236.16 109.816 236.352 116.824L174.144 128.92C176.064 135.064 179.52 139.912 184.512 143.464C189.6 146.92 195.648 148.648 202.656 148.648ZM200.064 89.464C194.784 89.464 190.032 90.712 185.808 93.208C181.68 95.608 178.416 99.016 176.016 103.432C173.712 107.752 172.56 112.744 172.56 118.408C172.56 119.848 172.608 120.904 172.704 121.576L226.128 111.208C224.976 104.872 222.048 99.688 217.344 95.656C212.64 91.528 206.88 89.464 200.064 89.464ZM266.954 96.088C269.354 91 272.906 87.16 277.61 84.568C282.41 81.976 288.314 80.68 295.322 80.68V90.616L292.874 90.472C284.906 90.472 278.666 92.92 274.154 97.816C269.642 102.712 267.386 109.576 267.386 118.408V157H257.162V81.256H266.954V96.088ZM380.717 81.256L347.021 157H336.509L302.957 81.256H313.613L341.981 145.768L370.637 81.256H380.717Z" fill="black"/>
<g filter="url(#filter1_d)">
<path d="M102.336 126.616C102.336 134.968 105.888 139.144 112.992 139.144C120.768 139.144 126 136.456 128.688 131.08C129.648 129.16 130.128 126.712 130.128 123.736C130.128 120.664 129.408 117.832 127.968 115.24C125.568 111.112 121.44 106.552 115.584 101.56C105.888 93.304 101.04 84.76 101.04 75.928C101.04 67 103.824 60.136 109.392 55.336C114.96 50.536 121.344 48.136 128.544 48.136C135.744 48.136 141.456 49.96 145.68 53.608C149.904 57.256 152.016 62.728 152.016 70.024C152.016 74.824 150.384 79 147.12 82.552C143.952 86.104 139.728 88.312 134.448 89.176C136.848 91.192 139.248 93.256 141.648 95.368C143.952 97.48 146.064 99.784 147.984 102.28C152.208 107.944 154.32 114.712 154.32 122.584C154.32 128.056 153.024 133 150.432 137.416C147.936 141.832 144.624 145.576 140.496 148.648C136.464 151.624 131.904 153.928 126.816 155.56C121.728 157.192 116.976 158.008 112.56 158.008C103.152 158.008 95.856 155.848 90.672 151.528C84.624 146.632 81.6 139.576 81.6 130.36C81.6 124.312 83.568 118.456 87.504 112.792C91.44 107.128 95.616 104.296 100.032 104.296C103.488 104.296 105.216 105.352 105.216 107.464C105.216 110.536 104.736 113.608 103.776 116.68C102.816 119.656 102.336 122.968 102.336 126.616ZM130.272 85.72C135.744 80.248 138.48 74.536 138.48 68.584C138.48 66.76 137.52 65.224 135.6 63.976C133.488 62.824 131.28 62.248 128.976 62.248C123.792 62.248 120.048 63.928 117.744 67.288C118.896 71.416 120.576 74.92 122.784 77.8C125.088 80.68 127.584 83.32 130.272 85.72Z" fill="#007AFF"/>
</g>
<defs>
<filter id="filter0_d" x="-4" y="0" width="164" height="164" filterUnits="userSpaceOnUse" color-interpolation-filters="sRGB">
<feFlood flood-opacity="0" result="BackgroundImageFix"/>
<feColorMatrix in="SourceAlpha" type="matrix" values="0 0 0 0 0 0 0 0 0 0 0 0 0 0 0 0 0 0 127 0"/>
<feOffset dy="4"/>
<feGaussianBlur stdDeviation="2"/>
<feColorMatrix type="matrix" values="0 0 0 0 0 0 0 0 0 0 0 0 0 0 0 0 0 0 0.25 0"/>
<feBlend mode="normal" in2="BackgroundImageFix" result="effect1_dropShadow"/>
<feBlend mode="normal" in="SourceGraphic" in2="effect1_dropShadow" result="shape"/>
</filter>
<filter id="filter1_d" x="77.6" y="48.136" width="80.72" height="117.872" filterUnits="userSpaceOnUse" color-interpolation-filters="sRGB">
<feFlood flood-opacity="0" result="BackgroundImageFix"/>
<feColorMatrix in="SourceAlpha" type="matrix" values="0 0 0 0 0 0 0 0 0 0 0 0 0 0 0 0 0 0 127 0"/>
<feOffset dy="4"/>
<feGaussianBlur stdDeviation="2"/>
<feColorMatrix type="matrix" values="0 0 0 0 0 0 0 0 0 0 0 0 0 0 0 0 0 0 0.25 0"/>
<feBlend mode="normal" in2="BackgroundImageFix" result="effect1_dropShadow"/>
<feBlend mode="normal" in="SourceGraphic" in2="effect1_dropShadow" result="shape"/>
</filter>
</defs>
</svg>
